<mxfile host="www.draw.io" modified="2019-11-27T09:06:24.301Z" agent="Mozilla/5.0 (Windows NT 10.0; WOW64) AppleWebKit/537.36 (KHTML, like Gecko) Chrome/75.0.3770.90 Safari/537.36" etag="399laqrT4gSTsEAaY9WI" version="12.3.1" type="github" pages="1">
  <diagram name="Page-1" id="13e1069c-82ec-6db2-03f1-153e76fe0fe0">
    <mxGraphModel dx="1408" dy="748" grid="0" gridSize="10" guides="1" tooltips="1" connect="1" arrows="1" fold="1" page="0" pageScale="1" pageWidth="1100" pageHeight="850" background="#ffffff" math="0" shadow="0">
      <root>
        <mxCell id="0"/>
        <mxCell id="1" parent="0"/>
        <mxCell id="QKhL0TV7jt127VQcfrzV-1" value="session:Session" style="shape=umlLifeline;perimeter=lifelinePerimeter;whiteSpace=wrap;html=1;container=1;collapsible=0;recursiveResize=0;outlineConnect=0;" parent="1" vertex="1">
          <mxGeometry x="180" y="20" width="130" height="1340" as="geometry"/>
        </mxCell>
        <mxCell id="QKhL0TV7jt127VQcfrzV-3" value="" style="html=1;points=[];perimeter=orthogonalPerimeter;fillColor=#f8cecc;strokeColor=#b85450;" parent="QKhL0TV7jt127VQcfrzV-1" vertex="1">
          <mxGeometry x="60" y="80" width="10" height="1240" as="geometry"/>
        </mxCell>
        <mxCell id="QKhL0TV7jt127VQcfrzV-15" value="" style="html=1;points=[];perimeter=orthogonalPerimeter;fillColor=#d5e8d4;strokeColor=#82b366;" parent="QKhL0TV7jt127VQcfrzV-1" vertex="1">
          <mxGeometry x="65" y="169" width="10" height="561" as="geometry"/>
        </mxCell>
        <mxCell id="QKhL0TV7jt127VQcfrzV-16" value="prep=prepare_request(req)" style="edgeStyle=orthogonalEdgeStyle;html=1;align=left;spacingLeft=2;endArrow=block;rounded=0;entryX=1;entryY=0;labelBackgroundColor=#ffffff;fontColor=#000000;" parent="QKhL0TV7jt127VQcfrzV-1" target="QKhL0TV7jt127VQcfrzV-15" edge="1">
          <mxGeometry relative="1" as="geometry">
            <mxPoint x="70" y="149" as="sourcePoint"/>
            <Array as="points">
              <mxPoint x="95" y="149"/>
            </Array>
          </mxGeometry>
        </mxCell>
        <mxCell id="QKhL0TV7jt127VQcfrzV-53" value="" style="html=1;points=[];perimeter=orthogonalPerimeter;fillColor=#d5e8d4;strokeColor=#82b366;" parent="QKhL0TV7jt127VQcfrzV-1" vertex="1">
          <mxGeometry x="65" y="764" width="10" height="526" as="geometry"/>
        </mxCell>
        <mxCell id="QKhL0TV7jt127VQcfrzV-54" value="resp=send(prep)" style="edgeStyle=orthogonalEdgeStyle;html=1;align=left;spacingLeft=2;endArrow=block;rounded=0;entryX=1;entryY=0;labelBackgroundColor=#ffffff;fontColor=#000000;" parent="QKhL0TV7jt127VQcfrzV-1" target="QKhL0TV7jt127VQcfrzV-53" edge="1">
          <mxGeometry relative="1" as="geometry">
            <mxPoint x="70" y="744" as="sourcePoint"/>
            <Array as="points">
              <mxPoint x="95" y="744"/>
            </Array>
          </mxGeometry>
        </mxCell>
        <mxCell id="QKhL0TV7jt127VQcfrzV-2" value="Actor" style="shape=umlActor;verticalLabelPosition=bottom;labelBackgroundColor=#ffffff;verticalAlign=top;html=1;" parent="1" vertex="1">
          <mxGeometry x="50" y="94" width="30" height="60" as="geometry"/>
        </mxCell>
        <mxCell id="QKhL0TV7jt127VQcfrzV-4" value="request()" style="html=1;verticalAlign=bottom;endArrow=block;entryX=0;entryY=0;exitX=0.75;exitY=0.1;exitDx=0;exitDy=0;exitPerimeter=0;horizontal=1;" parent="1" source="QKhL0TV7jt127VQcfrzV-2" target="QKhL0TV7jt127VQcfrzV-3" edge="1">
          <mxGeometry relative="1" as="geometry">
            <mxPoint x="170" y="100" as="sourcePoint"/>
          </mxGeometry>
        </mxCell>
        <mxCell id="QKhL0TV7jt127VQcfrzV-11" value="req:Request" style="shape=umlLifeline;perimeter=lifelinePerimeter;whiteSpace=wrap;html=1;container=1;collapsible=0;recursiveResize=0;outlineConnect=0;" parent="1" vertex="1">
          <mxGeometry x="370" y="20" width="100" height="1340" as="geometry"/>
        </mxCell>
        <mxCell id="QKhL0TV7jt127VQcfrzV-12" value="" style="html=1;points=[];perimeter=orthogonalPerimeter;fillColor=#f8cecc;strokeColor=#b85450;" parent="QKhL0TV7jt127VQcfrzV-11" vertex="1">
          <mxGeometry x="45" y="90" width="10" height="30" as="geometry"/>
        </mxCell>
        <mxCell id="QKhL0TV7jt127VQcfrzV-13" value="init" style="html=1;verticalAlign=bottom;endArrow=block;entryX=0;entryY=0;" parent="1" source="QKhL0TV7jt127VQcfrzV-3" target="QKhL0TV7jt127VQcfrzV-12" edge="1">
          <mxGeometry relative="1" as="geometry">
            <mxPoint x="345" y="110" as="sourcePoint"/>
          </mxGeometry>
        </mxCell>
        <mxCell id="QKhL0TV7jt127VQcfrzV-14" value="return req" style="verticalAlign=bottom;endArrow=open;dashed=1;endSize=8;exitX=0;exitY=0.95;fontStyle=0;fontColor=#000000;labelBackgroundColor=#ffffff;labelBorderColor=none;html=1;" parent="1" source="QKhL0TV7jt127VQcfrzV-12" target="QKhL0TV7jt127VQcfrzV-3" edge="1">
          <mxGeometry relative="1" as="geometry">
            <mxPoint x="345" y="186" as="targetPoint"/>
          </mxGeometry>
        </mxCell>
        <mxCell id="QKhL0TV7jt127VQcfrzV-17" value="PreparedRequest" style="shape=umlLifeline;perimeter=lifelinePerimeter;whiteSpace=wrap;html=1;container=1;collapsible=0;recursiveResize=0;outlineConnect=0;fontColor=#000000;" parent="1" vertex="1">
          <mxGeometry x="540" y="20" width="120" height="1340" as="geometry"/>
        </mxCell>
        <mxCell id="QKhL0TV7jt127VQcfrzV-18" value="" style="html=1;points=[];perimeter=orthogonalPerimeter;fillColor=#f8cecc;strokeColor=#b85450;" parent="QKhL0TV7jt127VQcfrzV-17" vertex="1">
          <mxGeometry x="55" y="180" width="10" height="550" as="geometry"/>
        </mxCell>
        <mxCell id="QKhL0TV7jt127VQcfrzV-38" value="" style="group" parent="QKhL0TV7jt127VQcfrzV-17" vertex="1" connectable="0">
          <mxGeometry x="60" y="572" width="30" height="60" as="geometry"/>
        </mxCell>
        <mxCell id="QKhL0TV7jt127VQcfrzV-36" value="" style="html=1;points=[];perimeter=orthogonalPerimeter;fillColor=#d5e8d4;strokeColor=#82b366;" parent="QKhL0TV7jt127VQcfrzV-38" vertex="1">
          <mxGeometry y="20" width="10" height="40" as="geometry"/>
        </mxCell>
        <mxCell id="QKhL0TV7jt127VQcfrzV-37" value="prepare_auth(auth, url)" style="edgeStyle=orthogonalEdgeStyle;html=1;align=left;spacingLeft=2;endArrow=block;rounded=0;entryX=1;entryY=0;labelBackgroundColor=#ffffff;fontColor=#000000;" parent="QKhL0TV7jt127VQcfrzV-38" target="QKhL0TV7jt127VQcfrzV-36" edge="1">
          <mxGeometry relative="1" as="geometry">
            <mxPoint x="5" as="sourcePoint"/>
            <Array as="points">
              <mxPoint x="30"/>
            </Array>
          </mxGeometry>
        </mxCell>
        <mxCell id="QKhL0TV7jt127VQcfrzV-39" value="" style="group" parent="QKhL0TV7jt127VQcfrzV-17" vertex="1" connectable="0">
          <mxGeometry x="60" y="496" width="30" height="60" as="geometry"/>
        </mxCell>
        <mxCell id="QKhL0TV7jt127VQcfrzV-34" value="" style="html=1;points=[];perimeter=orthogonalPerimeter;fillColor=#d5e8d4;strokeColor=#82b366;" parent="QKhL0TV7jt127VQcfrzV-39" vertex="1">
          <mxGeometry y="20" width="10" height="40" as="geometry"/>
        </mxCell>
        <mxCell id="QKhL0TV7jt127VQcfrzV-35" value="prepare_body(data, files, json)" style="edgeStyle=orthogonalEdgeStyle;html=1;align=left;spacingLeft=2;endArrow=block;rounded=0;entryX=1;entryY=0;labelBackgroundColor=#ffffff;fontColor=#000000;" parent="QKhL0TV7jt127VQcfrzV-39" target="QKhL0TV7jt127VQcfrzV-34" edge="1">
          <mxGeometry relative="1" as="geometry">
            <mxPoint x="5" as="sourcePoint"/>
            <Array as="points">
              <mxPoint x="30"/>
            </Array>
          </mxGeometry>
        </mxCell>
        <mxCell id="QKhL0TV7jt127VQcfrzV-40" value="" style="group" parent="QKhL0TV7jt127VQcfrzV-17" vertex="1" connectable="0">
          <mxGeometry x="60" y="420" width="30" height="60" as="geometry"/>
        </mxCell>
        <mxCell id="QKhL0TV7jt127VQcfrzV-32" value="" style="html=1;points=[];perimeter=orthogonalPerimeter;fillColor=#d5e8d4;strokeColor=#82b366;" parent="QKhL0TV7jt127VQcfrzV-40" vertex="1">
          <mxGeometry y="20" width="10" height="40" as="geometry"/>
        </mxCell>
        <mxCell id="QKhL0TV7jt127VQcfrzV-33" value="prepare_cookies(cookies)" style="edgeStyle=orthogonalEdgeStyle;html=1;align=left;spacingLeft=2;endArrow=block;rounded=0;entryX=1;entryY=0;labelBackgroundColor=#ffffff;fontColor=#000000;" parent="QKhL0TV7jt127VQcfrzV-40" target="QKhL0TV7jt127VQcfrzV-32" edge="1">
          <mxGeometry relative="1" as="geometry">
            <mxPoint x="5" as="sourcePoint"/>
            <Array as="points">
              <mxPoint x="30"/>
            </Array>
          </mxGeometry>
        </mxCell>
        <mxCell id="QKhL0TV7jt127VQcfrzV-41" value="" style="group" parent="QKhL0TV7jt127VQcfrzV-17" vertex="1" connectable="0">
          <mxGeometry x="60" y="343" width="30" height="60" as="geometry"/>
        </mxCell>
        <mxCell id="QKhL0TV7jt127VQcfrzV-30" value="" style="html=1;points=[];perimeter=orthogonalPerimeter;fillColor=#d5e8d4;strokeColor=#82b366;" parent="QKhL0TV7jt127VQcfrzV-41" vertex="1">
          <mxGeometry y="20" width="10" height="40" as="geometry"/>
        </mxCell>
        <mxCell id="QKhL0TV7jt127VQcfrzV-31" value="prepare_headers(headers)" style="edgeStyle=orthogonalEdgeStyle;html=1;align=left;spacingLeft=2;endArrow=block;rounded=0;entryX=1;entryY=0;labelBackgroundColor=#ffffff;fontColor=#000000;" parent="QKhL0TV7jt127VQcfrzV-41" target="QKhL0TV7jt127VQcfrzV-30" edge="1">
          <mxGeometry relative="1" as="geometry">
            <mxPoint x="5" as="sourcePoint"/>
            <Array as="points">
              <mxPoint x="30"/>
            </Array>
          </mxGeometry>
        </mxCell>
        <mxCell id="QKhL0TV7jt127VQcfrzV-42" value="" style="group" parent="QKhL0TV7jt127VQcfrzV-17" vertex="1" connectable="0">
          <mxGeometry x="60" y="267" width="30" height="60" as="geometry"/>
        </mxCell>
        <mxCell id="QKhL0TV7jt127VQcfrzV-25" value="" style="html=1;points=[];perimeter=orthogonalPerimeter;fillColor=#d5e8d4;strokeColor=#82b366;" parent="QKhL0TV7jt127VQcfrzV-42" vertex="1">
          <mxGeometry y="20" width="10" height="40" as="geometry"/>
        </mxCell>
        <mxCell id="QKhL0TV7jt127VQcfrzV-26" value="prepare_url(url, params)" style="edgeStyle=orthogonalEdgeStyle;html=1;align=left;spacingLeft=2;endArrow=block;rounded=0;entryX=1;entryY=0;labelBackgroundColor=#ffffff;fontColor=#000000;" parent="QKhL0TV7jt127VQcfrzV-42" target="QKhL0TV7jt127VQcfrzV-25" edge="1">
          <mxGeometry relative="1" as="geometry">
            <mxPoint x="5" as="sourcePoint"/>
            <Array as="points">
              <mxPoint x="30"/>
            </Array>
          </mxGeometry>
        </mxCell>
        <mxCell id="QKhL0TV7jt127VQcfrzV-43" value="" style="group" parent="QKhL0TV7jt127VQcfrzV-17" vertex="1" connectable="0">
          <mxGeometry x="60" y="191" width="30" height="60" as="geometry"/>
        </mxCell>
        <mxCell id="QKhL0TV7jt127VQcfrzV-21" value="" style="html=1;points=[];perimeter=orthogonalPerimeter;fillColor=#d5e8d4;strokeColor=#82b366;" parent="QKhL0TV7jt127VQcfrzV-43" vertex="1">
          <mxGeometry y="20" width="10" height="40" as="geometry"/>
        </mxCell>
        <mxCell id="QKhL0TV7jt127VQcfrzV-22" value="prepare_method(method)" style="edgeStyle=orthogonalEdgeStyle;html=1;align=left;spacingLeft=2;endArrow=block;rounded=0;entryX=1;entryY=0;labelBackgroundColor=#ffffff;fontColor=#000000;" parent="QKhL0TV7jt127VQcfrzV-43" target="QKhL0TV7jt127VQcfrzV-21" edge="1">
          <mxGeometry relative="1" as="geometry">
            <mxPoint x="5" as="sourcePoint"/>
            <Array as="points">
              <mxPoint x="30"/>
            </Array>
          </mxGeometry>
        </mxCell>
        <mxCell id="QKhL0TV7jt127VQcfrzV-46" value="" style="group" parent="QKhL0TV7jt127VQcfrzV-17" vertex="1" connectable="0">
          <mxGeometry x="60" y="644" width="30" height="60" as="geometry"/>
        </mxCell>
        <mxCell id="QKhL0TV7jt127VQcfrzV-44" value="" style="html=1;points=[];perimeter=orthogonalPerimeter;fillColor=#d5e8d4;strokeColor=#82b366;" parent="QKhL0TV7jt127VQcfrzV-46" vertex="1">
          <mxGeometry y="20" width="10" height="40" as="geometry"/>
        </mxCell>
        <mxCell id="QKhL0TV7jt127VQcfrzV-45" value="self.prepare_hooks(hooks)" style="edgeStyle=orthogonalEdgeStyle;html=1;align=left;spacingLeft=2;endArrow=block;rounded=0;entryX=1;entryY=0;labelBackgroundColor=#ffffff;fontColor=#000000;" parent="QKhL0TV7jt127VQcfrzV-46" target="QKhL0TV7jt127VQcfrzV-44" edge="1">
          <mxGeometry relative="1" as="geometry">
            <mxPoint x="5" as="sourcePoint"/>
            <Array as="points">
              <mxPoint x="30"/>
            </Array>
          </mxGeometry>
        </mxCell>
        <mxCell id="QKhL0TV7jt127VQcfrzV-19" value="init() &amp;amp; prepare ()" style="html=1;verticalAlign=bottom;endArrow=block;entryX=0;entryY=0;labelBackgroundColor=#ffffff;fontColor=#000000;" parent="1" source="QKhL0TV7jt127VQcfrzV-15" target="QKhL0TV7jt127VQcfrzV-18" edge="1">
          <mxGeometry relative="1" as="geometry">
            <mxPoint x="525" y="200" as="sourcePoint"/>
          </mxGeometry>
        </mxCell>
        <mxCell id="QKhL0TV7jt127VQcfrzV-20" value="return p" style="html=1;verticalAlign=bottom;endArrow=open;dashed=1;endSize=8;exitX=0;exitY=0.95;labelBackgroundColor=#ffffff;fontColor=#000000;" parent="1" source="QKhL0TV7jt127VQcfrzV-18" target="QKhL0TV7jt127VQcfrzV-15" edge="1">
          <mxGeometry relative="1" as="geometry">
            <mxPoint x="300" y="722" as="targetPoint"/>
          </mxGeometry>
        </mxCell>
        <mxCell id="QKhL0TV7jt127VQcfrzV-55" value="HTTPAdapter" style="shape=umlLifeline;perimeter=lifelinePerimeter;whiteSpace=wrap;html=1;container=1;collapsible=0;recursiveResize=0;outlineConnect=0;fontColor=#000000;" parent="1" vertex="1">
          <mxGeometry x="850" y="20" width="100" height="1340" as="geometry"/>
        </mxCell>
        <mxCell id="QKhL0TV7jt127VQcfrzV-56" value="" style="html=1;points=[];perimeter=orthogonalPerimeter;fillColor=#f8cecc;strokeColor=#b85450;" parent="QKhL0TV7jt127VQcfrzV-55" vertex="1">
          <mxGeometry x="45" y="770" width="10" height="530" as="geometry"/>
        </mxCell>
        <mxCell id="QKhL0TV7jt127VQcfrzV-59" value="" style="html=1;points=[];perimeter=orthogonalPerimeter;fillColor=#d5e8d4;strokeColor=#82b366;" parent="QKhL0TV7jt127VQcfrzV-55" vertex="1">
          <mxGeometry x="50" y="798" width="10" height="242" as="geometry"/>
        </mxCell>
        <mxCell id="QKhL0TV7jt127VQcfrzV-60" value="conn = get_connection(&lt;br&gt;&amp;nbsp; &amp;nbsp; request.url, proxies&lt;br&gt;)" style="edgeStyle=orthogonalEdgeStyle;html=1;align=left;spacingLeft=2;endArrow=block;rounded=0;entryX=1;entryY=0;labelBackgroundColor=#ffffff;fontColor=#000000;" parent="QKhL0TV7jt127VQcfrzV-55" target="QKhL0TV7jt127VQcfrzV-59" edge="1">
          <mxGeometry relative="1" as="geometry">
            <mxPoint x="55" y="778" as="sourcePoint"/>
            <Array as="points">
              <mxPoint x="80" y="778"/>
            </Array>
          </mxGeometry>
        </mxCell>
        <mxCell id="QKhL0TV7jt127VQcfrzV-80" value="" style="html=1;points=[];perimeter=orthogonalPerimeter;fillColor=#d5e8d4;strokeColor=#82b366;" parent="QKhL0TV7jt127VQcfrzV-55" vertex="1">
          <mxGeometry x="50" y="1210" width="10" height="70" as="geometry"/>
        </mxCell>
        <mxCell id="QKhL0TV7jt127VQcfrzV-81" value="build_response(request, resp)" style="edgeStyle=orthogonalEdgeStyle;html=1;align=left;spacingLeft=2;endArrow=block;rounded=0;entryX=1;entryY=0;labelBackgroundColor=#ffffff;fontColor=#000000;" parent="QKhL0TV7jt127VQcfrzV-55" target="QKhL0TV7jt127VQcfrzV-80" edge="1">
          <mxGeometry relative="1" as="geometry">
            <mxPoint x="55" y="1190" as="sourcePoint"/>
            <Array as="points">
              <mxPoint x="80" y="1190"/>
            </Array>
          </mxGeometry>
        </mxCell>
        <mxCell id="QKhL0TV7jt127VQcfrzV-57" value="r = send(request)" style="html=1;verticalAlign=bottom;endArrow=block;entryX=0;entryY=0;labelBackgroundColor=#ffffff;fontColor=#000000;" parent="1" source="QKhL0TV7jt127VQcfrzV-53" target="QKhL0TV7jt127VQcfrzV-56" edge="1">
          <mxGeometry relative="1" as="geometry">
            <mxPoint x="825" y="800" as="sourcePoint"/>
          </mxGeometry>
        </mxCell>
        <mxCell id="QKhL0TV7jt127VQcfrzV-61" value="PoolManager" style="shape=umlLifeline;perimeter=lifelinePerimeter;whiteSpace=wrap;html=1;container=1;collapsible=0;recursiveResize=0;outlineConnect=0;fontColor=#000000;" parent="1" vertex="1">
          <mxGeometry x="1140" y="20" width="100" height="1340" as="geometry"/>
        </mxCell>
        <mxCell id="QKhL0TV7jt127VQcfrzV-62" value="" style="html=1;points=[];perimeter=orthogonalPerimeter;fillColor=#f8cecc;strokeColor=#b85450;" parent="QKhL0TV7jt127VQcfrzV-61" vertex="1">
          <mxGeometry x="45" y="820" width="10" height="220" as="geometry"/>
        </mxCell>
        <mxCell id="QKhL0TV7jt127VQcfrzV-65" value="" style="html=1;points=[];perimeter=orthogonalPerimeter;fillColor=#d5e8d4;strokeColor=#82b366;" parent="QKhL0TV7jt127VQcfrzV-61" vertex="1">
          <mxGeometry x="50" y="852" width="10" height="168" as="geometry"/>
        </mxCell>
        <mxCell id="QKhL0TV7jt127VQcfrzV-66" value="&lt;div&gt;&lt;span style=&quot;font-size: 11px&quot;&gt;connection_from_host(&lt;/span&gt;&lt;/div&gt;&lt;div&gt;&lt;span style=&quot;font-size: 11px&quot;&gt;&amp;nbsp; &amp;nbsp; host, port=port, scheme=scheme,&lt;/span&gt;&lt;/div&gt;&lt;div&gt;&lt;span style=&quot;font-size: 11px&quot;&gt;&amp;nbsp; &amp;nbsp; pool_kwargs=pool_kwargs&lt;/span&gt;&lt;/div&gt;&lt;div&gt;&lt;span style=&quot;font-size: 11px&quot;&gt;)&lt;/span&gt;&lt;/div&gt;" style="edgeStyle=orthogonalEdgeStyle;html=1;align=left;spacingLeft=2;endArrow=block;rounded=0;entryX=1;entryY=0;labelBackgroundColor=#ffffff;fontColor=#000000;" parent="QKhL0TV7jt127VQcfrzV-61" target="QKhL0TV7jt127VQcfrzV-65" edge="1">
          <mxGeometry relative="1" as="geometry">
            <mxPoint x="55" y="832" as="sourcePoint"/>
            <Array as="points">
              <mxPoint x="80" y="832"/>
            </Array>
          </mxGeometry>
        </mxCell>
        <mxCell id="QKhL0TV7jt127VQcfrzV-67" value="" style="html=1;points=[];perimeter=orthogonalPerimeter;fillColor=#dae8fc;strokeColor=#6c8ebf;" parent="QKhL0TV7jt127VQcfrzV-61" vertex="1">
          <mxGeometry x="55" y="895" width="10" height="115" as="geometry"/>
        </mxCell>
        <mxCell id="QKhL0TV7jt127VQcfrzV-68" value="connection_from_context(request_context)" style="edgeStyle=orthogonalEdgeStyle;html=1;align=left;spacingLeft=2;endArrow=block;rounded=0;entryX=1;entryY=0;labelBackgroundColor=#ffffff;fontColor=#000000;" parent="QKhL0TV7jt127VQcfrzV-61" target="QKhL0TV7jt127VQcfrzV-67" edge="1">
          <mxGeometry relative="1" as="geometry">
            <mxPoint x="60" y="875" as="sourcePoint"/>
            <Array as="points">
              <mxPoint x="85" y="875"/>
            </Array>
          </mxGeometry>
        </mxCell>
        <mxCell id="QKhL0TV7jt127VQcfrzV-69" value="" style="html=1;points=[];perimeter=orthogonalPerimeter;fillColor=#ffe6cc;strokeColor=#d79b00;" parent="QKhL0TV7jt127VQcfrzV-61" vertex="1">
          <mxGeometry x="60" y="926" width="10" height="54" as="geometry"/>
        </mxCell>
        <mxCell id="QKhL0TV7jt127VQcfrzV-70" value="connection_from_pool_key(pool_key, &lt;br&gt;&amp;nbsp; &amp;nbsp; request_context)" style="edgeStyle=orthogonalEdgeStyle;html=1;align=left;spacingLeft=2;endArrow=block;rounded=0;entryX=1;entryY=0;labelBackgroundColor=#ffffff;fontColor=#000000;" parent="QKhL0TV7jt127VQcfrzV-61" target="QKhL0TV7jt127VQcfrzV-69" edge="1">
          <mxGeometry relative="1" as="geometry">
            <mxPoint x="65" y="906" as="sourcePoint"/>
            <Array as="points">
              <mxPoint x="90" y="906"/>
            </Array>
          </mxGeometry>
        </mxCell>
        <mxCell id="QKhL0TV7jt127VQcfrzV-63" value="conn = connection_from_url(url)" style="html=1;verticalAlign=bottom;endArrow=block;entryX=0;entryY=0;labelBackgroundColor=#ffffff;fontColor=#000000;" parent="1" source="QKhL0TV7jt127VQcfrzV-59" target="QKhL0TV7jt127VQcfrzV-62" edge="1">
          <mxGeometry relative="1" as="geometry">
            <mxPoint x="1115" y="840" as="sourcePoint"/>
          </mxGeometry>
        </mxCell>
        <mxCell id="QKhL0TV7jt127VQcfrzV-71" value="HTTPConnectionPool" style="shape=umlLifeline;perimeter=lifelinePerimeter;whiteSpace=wrap;html=1;container=1;collapsible=0;recursiveResize=0;outlineConnect=0;fontColor=#000000;" parent="1" vertex="1">
          <mxGeometry x="1500" y="20" width="180" height="1340" as="geometry"/>
        </mxCell>
        <mxCell id="QKhL0TV7jt127VQcfrzV-72" value="" style="html=1;points=[];perimeter=orthogonalPerimeter;fillColor=#f8cecc;strokeColor=#b85450;" parent="QKhL0TV7jt127VQcfrzV-71" vertex="1">
          <mxGeometry x="85" y="940" width="10" height="30" as="geometry"/>
        </mxCell>
        <mxCell id="QKhL0TV7jt127VQcfrzV-75" value="" style="html=1;points=[];perimeter=orthogonalPerimeter;fillColor=#f8cecc;strokeColor=#b85450;" parent="QKhL0TV7jt127VQcfrzV-71" vertex="1">
          <mxGeometry x="85" y="1070" width="10" height="80" as="geometry"/>
        </mxCell>
        <mxCell id="QKhL0TV7jt127VQcfrzV-73" value="init()" style="html=1;verticalAlign=bottom;endArrow=block;entryX=0;entryY=0;labelBackgroundColor=#ffffff;fontColor=#000000;" parent="1" source="QKhL0TV7jt127VQcfrzV-69" target="QKhL0TV7jt127VQcfrzV-72" edge="1">
          <mxGeometry relative="1" as="geometry">
            <mxPoint x="1515" y="955" as="sourcePoint"/>
          </mxGeometry>
        </mxCell>
        <mxCell id="QKhL0TV7jt127VQcfrzV-74" value="pool" style="html=1;verticalAlign=bottom;endArrow=open;dashed=1;endSize=8;exitX=0;exitY=0.95;labelBackgroundColor=#ffffff;fontColor=#000000;" parent="1" source="QKhL0TV7jt127VQcfrzV-72" target="QKhL0TV7jt127VQcfrzV-69" edge="1">
          <mxGeometry relative="1" as="geometry">
            <mxPoint x="1515" y="1031" as="targetPoint"/>
          </mxGeometry>
        </mxCell>
        <mxCell id="QKhL0TV7jt127VQcfrzV-64" value="return pool" style="html=1;verticalAlign=bottom;endArrow=open;dashed=1;endSize=8;exitX=0;exitY=0.95;labelBackgroundColor=#ffffff;fontColor=#000000;" parent="1" source="QKhL0TV7jt127VQcfrzV-62" target="QKhL0TV7jt127VQcfrzV-59" edge="1">
          <mxGeometry relative="1" as="geometry">
            <mxPoint x="1115" y="916" as="targetPoint"/>
          </mxGeometry>
        </mxCell>
        <mxCell id="QKhL0TV7jt127VQcfrzV-76" value="resp = urlopen()" style="html=1;verticalAlign=bottom;endArrow=block;entryX=0;entryY=0;labelBackgroundColor=#ffffff;fontColor=#000000;" parent="1" source="QKhL0TV7jt127VQcfrzV-56" target="QKhL0TV7jt127VQcfrzV-75" edge="1">
          <mxGeometry relative="1" as="geometry">
            <mxPoint x="1110" y="1110" as="sourcePoint"/>
          </mxGeometry>
        </mxCell>
        <mxCell id="QKhL0TV7jt127VQcfrzV-77" value="return resp" style="html=1;verticalAlign=bottom;endArrow=open;dashed=1;endSize=8;exitX=0;exitY=0.95;labelBackgroundColor=#ffffff;fontColor=#000000;" parent="1" source="QKhL0TV7jt127VQcfrzV-75" target="QKhL0TV7jt127VQcfrzV-56" edge="1">
          <mxGeometry relative="1" as="geometry">
            <mxPoint x="1515" y="1186" as="targetPoint"/>
          </mxGeometry>
        </mxCell>
        <mxCell id="QKhL0TV7jt127VQcfrzV-82" value="Response" style="shape=umlLifeline;perimeter=lifelinePerimeter;whiteSpace=wrap;html=1;container=1;collapsible=0;recursiveResize=0;outlineConnect=0;fontColor=#000000;" parent="1" vertex="1">
          <mxGeometry x="1800" y="20" width="100" height="1340" as="geometry"/>
        </mxCell>
        <mxCell id="QKhL0TV7jt127VQcfrzV-83" value="" style="html=1;points=[];perimeter=orthogonalPerimeter;fillColor=#f8cecc;strokeColor=#b85450;" parent="QKhL0TV7jt127VQcfrzV-82" vertex="1">
          <mxGeometry x="45" y="1220" width="10" height="50" as="geometry"/>
        </mxCell>
        <mxCell id="QKhL0TV7jt127VQcfrzV-84" value="init()" style="html=1;verticalAlign=bottom;endArrow=block;entryX=0;entryY=0;labelBackgroundColor=#ffffff;fontColor=#000000;" parent="1" source="QKhL0TV7jt127VQcfrzV-80" target="QKhL0TV7jt127VQcfrzV-83" edge="1">
          <mxGeometry relative="1" as="geometry">
            <mxPoint x="1230" y="1260" as="sourcePoint"/>
          </mxGeometry>
        </mxCell>
        <mxCell id="QKhL0TV7jt127VQcfrzV-85" value="return" style="html=1;verticalAlign=bottom;endArrow=open;dashed=1;endSize=8;exitX=0;exitY=0.95;labelBackgroundColor=#ffffff;fontColor=#000000;" parent="1" source="QKhL0TV7jt127VQcfrzV-83" target="QKhL0TV7jt127VQcfrzV-80" edge="1">
          <mxGeometry relative="1" as="geometry">
            <mxPoint x="1320" y="1265" as="targetPoint"/>
          </mxGeometry>
        </mxCell>
        <mxCell id="QKhL0TV7jt127VQcfrzV-58" value="return response" style="html=1;verticalAlign=bottom;endArrow=open;dashed=1;endSize=8;exitX=0;exitY=0.95;labelBackgroundColor=#ffffff;fontColor=#000000;" parent="1" source="QKhL0TV7jt127VQcfrzV-56" target="QKhL0TV7jt127VQcfrzV-53" edge="1">
          <mxGeometry relative="1" as="geometry">
            <mxPoint x="320" y="1270" as="targetPoint"/>
          </mxGeometry>
        </mxCell>
        <mxCell id="QKhL0TV7jt127VQcfrzV-86" value="return" style="html=1;verticalAlign=bottom;endArrow=open;dashed=1;endSize=8;labelBackgroundColor=#ffffff;fontColor=#000000;" parent="1" source="QKhL0TV7jt127VQcfrzV-3" edge="1">
          <mxGeometry relative="1" as="geometry">
            <mxPoint x="160" y="1320" as="sourcePoint"/>
            <mxPoint x="20" y="1320" as="targetPoint"/>
          </mxGeometry>
        </mxCell>
      </root>
    </mxGraphModel>
  </diagram>
</mxfile>
